<svg width="211" height="165" viewBox="0 0 211 165" fill="none" xmlns="http://www.w3.org/2000/svg">
<rect width="211" height="165" fill="#1E1E1E"/>
<rect width="211" height="165" fill="black"/>
<rect x="6" y="6" width="103" height="153" fill="black" stroke="white" stroke-width="12"/>
<path d="M153.768 98.625V98.625C150.893 102.519 146.195 104.632 141.374 104.2L138.647 103.955C132.692 103.421 127.365 100.035 124.353 94.8698V94.8698C122.709 92.0489 121.842 88.842 121.842 85.5767V83.9861C121.842 80.3765 122.828 76.8354 124.693 73.7449V73.7449C126.371 70.9645 128.706 68.639 131.493 66.9727L132.793 66.1958C134.584 65.1247 136.499 64.2743 138.495 63.663L140.846 62.9428C147.861 60.794 155.334 60.634 162.435 62.4807L163.001 62.6281C172.265 65.0375 180.285 70.8423 185.468 78.8901L185.705 79.2574C189.516 85.1757 191.543 92.0663 191.543 99.1058V99.1058C191.543 106.384 189.376 113.498 185.319 119.54L183.344 122.482C179.434 128.306 174.301 133.208 168.305 136.847L167.271 137.474C157.095 143.65 145.158 146.274 133.33 144.936L131.528 144.733C123.846 143.864 116.409 141.496 109.639 137.763L109.297 137.574C98.7265 131.746 90.1207 122.915 84.5671 112.198L83.6053 110.342C80.2139 103.797 78.225 96.6168 77.7656 89.26V89.26C77.2619 81.1927 78.61 73.1171 81.7068 65.6509L82.4931 63.7552C85.9384 55.4489 91.1533 47.9937 97.7746 41.909L103.773 36.397C110.23 30.463 117.808 25.8783 126.061 22.9121V22.9121C131 21.1368 136.134 19.9583 141.353 19.4018L142.894 19.2375C150.587 18.4171 158.36 18.7549 165.954 20.2396V20.2396L169.437 20.9207C174.716 21.9529 179.794 23.8308 184.475 26.482L185.989 27.34C193.792 31.7593 200.071 38.4397 204 46.5V46.5" stroke="white" stroke-width="12" stroke-linecap="round"/>
</svg>
